name C:\Users\u0101727\Documents\MyRepositories\upper-imu-dc\OpenSim\subject0\MA\ResultsMA\grid_4nodes_9dim\angles_2.mot
datacolumns 10
datarows 37
range 275.01000000 275.37000000
endheader 
time	clav_prot	clav_elev	scapula_abduction	scapula_elevation	scapula_upward_rot	scapula_winging	plane_elv	shoulder_elv	axial_rot	
        275.01000000	        -50.00000000	         20.00000000	         -3.33333333	         -3.33333333	         90.00000000	          0.00000000	         30.00000000	         26.66666667	        -90.00000000	
        275.02000000	        -38.33333333	         20.00000000	         -3.33333333	         -3.33333333	         90.00000000	          0.00000000	         30.00000000	         26.66666667	        -90.00000000	
        275.03000000	        -26.66666667	         20.00000000	         -3.33333333	         -3.33333333	         90.00000000	          0.00000000	         30.00000000	         26.66666667	        -90.00000000	
        275.04000000	        -15.00000000	         20.00000000	         -3.33333333	         -3.33333333	         90.00000000	          0.00000000	         30.00000000	         26.66666667	        -90.00000000	
        275.05000000	        -50.00000000	        -10.00000000	         15.00000000	         -3.33333333	         90.00000000	          0.00000000	         30.00000000	         26.66666667	        -90.00000000	
        275.06000000	        -38.33333333	        -10.00000000	         15.00000000	         -3.33333333	         90.00000000	          0.00000000	         30.00000000	         26.66666667	        -90.00000000	
        275.07000000	        -26.66666667	        -10.00000000	         15.00000000	         -3.33333333	         90.00000000	          0.00000000	         30.00000000	         26.66666667	        -90.00000000	
        275.08000000	        -15.00000000	        -10.00000000	         15.00000000	         -3.33333333	         90.00000000	          0.00000000	         30.00000000	         26.66666667	        -90.00000000	
        275.09000000	        -50.00000000	          0.00000000	         15.00000000	         -3.33333333	         90.00000000	          0.00000000	         30.00000000	         26.66666667	        -90.00000000	
        275.10000000	        -38.33333333	          0.00000000	         15.00000000	         -3.33333333	         90.00000000	          0.00000000	         30.00000000	         26.66666667	        -90.00000000	
        275.11000000	        -26.66666667	          0.00000000	         15.00000000	         -3.33333333	         90.00000000	          0.00000000	         30.00000000	         26.66666667	        -90.00000000	
        275.12000000	        -15.00000000	          0.00000000	         15.00000000	         -3.33333333	         90.00000000	          0.00000000	         30.00000000	         26.66666667	        -90.00000000	
        275.13000000	        -50.00000000	         10.00000000	         15.00000000	         -3.33333333	         90.00000000	          0.00000000	         30.00000000	         26.66666667	        -90.00000000	
        275.14000000	        -38.33333333	         10.00000000	         15.00000000	         -3.33333333	         90.00000000	          0.00000000	         30.00000000	         26.66666667	        -90.00000000	
        275.15000000	        -26.66666667	         10.00000000	         15.00000000	         -3.33333333	         90.00000000	          0.00000000	         30.00000000	         26.66666667	        -90.00000000	
        275.16000000	        -15.00000000	         10.00000000	         15.00000000	         -3.33333333	         90.00000000	          0.00000000	         30.00000000	         26.66666667	        -90.00000000	
        275.17000000	        -50.00000000	         20.00000000	         15.00000000	         -3.33333333	         90.00000000	          0.00000000	         30.00000000	         26.66666667	        -90.00000000	
        275.18000000	        -38.33333333	         20.00000000	         15.00000000	         -3.33333333	         90.00000000	          0.00000000	         30.00000000	         26.66666667	        -90.00000000	
        275.19000000	        -26.66666667	         20.00000000	         15.00000000	         -3.33333333	         90.00000000	          0.00000000	         30.00000000	         26.66666667	        -90.00000000	
        275.20000000	        -15.00000000	         20.00000000	         15.00000000	         -3.33333333	         90.00000000	          0.00000000	         30.00000000	         26.66666667	        -90.00000000	
        275.21000000	        -50.00000000	        -10.00000000	        -40.00000000	          3.33333333	         90.00000000	          0.00000000	         30.00000000	         26.66666667	        -90.00000000	
        275.22000000	        -38.33333333	        -10.00000000	        -40.00000000	          3.33333333	         90.00000000	          0.00000000	         30.00000000	         26.66666667	        -90.00000000	
        275.23000000	        -26.66666667	        -10.00000000	        -40.00000000	          3.33333333	         90.00000000	          0.00000000	         30.00000000	         26.66666667	        -90.00000000	
        275.24000000	        -15.00000000	        -10.00000000	        -40.00000000	          3.33333333	         90.00000000	          0.00000000	         30.00000000	         26.66666667	        -90.00000000	
        275.25000000	        -50.00000000	          0.00000000	        -40.00000000	          3.33333333	         90.00000000	          0.00000000	         30.00000000	         26.66666667	        -90.00000000	
        275.26000000	        -38.33333333	          0.00000000	        -40.00000000	          3.33333333	         90.00000000	          0.00000000	         30.00000000	         26.66666667	        -90.00000000	
        275.27000000	        -26.66666667	          0.00000000	        -40.00000000	          3.33333333	         90.00000000	          0.00000000	         30.00000000	         26.66666667	        -90.00000000	
        275.28000000	        -15.00000000	          0.00000000	        -40.00000000	          3.33333333	         90.00000000	          0.00000000	         30.00000000	         26.66666667	        -90.00000000	
        275.29000000	        -50.00000000	         10.00000000	        -40.00000000	          3.33333333	         90.00000000	          0.00000000	         30.00000000	         26.66666667	        -90.00000000	
        275.30000000	        -38.33333333	         10.00000000	        -40.00000000	          3.33333333	         90.00000000	          0.00000000	         30.00000000	         26.66666667	        -90.00000000	
        275.31000000	        -26.66666667	         10.00000000	        -40.00000000	          3.33333333	         90.00000000	          0.00000000	         30.00000000	         26.66666667	        -90.00000000	
        275.32000000	        -15.00000000	         10.00000000	        -40.00000000	          3.33333333	         90.00000000	          0.00000000	         30.00000000	         26.66666667	        -90.00000000	
        275.33000000	        -50.00000000	         20.00000000	        -40.00000000	          3.33333333	         90.00000000	          0.00000000	         30.00000000	         26.66666667	        -90.00000000	
        275.34000000	        -38.33333333	         20.00000000	        -40.00000000	          3.33333333	         90.00000000	          0.00000000	         30.00000000	         26.66666667	        -90.00000000	
        275.35000000	        -26.66666667	         20.00000000	        -40.00000000	          3.33333333	         90.00000000	          0.00000000	         30.00000000	         26.66666667	        -90.00000000	
        275.36000000	        -15.00000000	         20.00000000	        -40.00000000	          3.33333333	         90.00000000	          0.00000000	         30.00000000	         26.66666667	        -90.00000000	
        275.37000000	        -50.00000000	        -10.00000000	        -21.66666667	          3.33333333	         90.00000000	          0.00000000	         30.00000000	         26.66666667	        -90.00000000	
